<svg width="24" height="24" viewBox="0 0 24 24" fill="none" xmlns="http://www.w3.org/2000/svg">
<path fill-rule="evenodd" clip-rule="evenodd" d="M21.1 6.55092L21.13 6.57492C21.667 6.98792 22 7.62792 22 8.33192V19.5879C22.0016 20.0354 21.9148 20.4788 21.7447 20.8927C21.5745 21.3066 21.3243 21.6829 21.0084 21.9998C20.6926 22.3168 20.3172 22.5684 19.9039 22.74C19.4906 22.9116 19.0475 22.9999 18.6 22.9999H5.40002C4.95252 22.9999 4.50941 22.9116 4.09612 22.74C3.68283 22.5684 3.30748 22.3168 2.99161 21.9998C2.67573 21.6829 2.42554 21.3066 2.25538 20.8927C2.08522 20.4788 1.99844 20.0354 2.00002 19.5879V8.33192C2.00002 7.62792 2.33302 6.98792 2.87002 6.57492L2.89902 6.55192L10.689 1.41992C11.0641 1.14732 11.5159 1.00049 11.9795 1.00049C12.4432 1.00049 12.895 1.14732 13.27 1.41992L21.1 6.55092ZM10 12.9999V20.9999H8.00002V12.7999C8.00002 11.8079 8.80802 10.9999 9.80002 10.9999H14.2C15.192 10.9999 16 11.8079 16 12.7999V20.9999H14V12.9999H10Z" fill="white"/>
</svg>
