<svg width="136" height="128" viewBox="0 0 136 128" fill="none" xmlns="http://www.w3.org/2000/svg">
<path d="M93.8962 34.4067C101.531 34.4067 107.524 41.2067 106.869 49.1195L102.015 107.587C101.517 112.374 97.6478 116 93.039 116H53.879C49.2701 116 45.4009 112.374 44.9033 107.587L40.0491 49.1195C39.3936 41.2067 45.3874 34.4067 53.0217 34.4067H93.8996H93.8962Z" fill="#7267D9"/>
<path d="M60.1083 73.5427C62.4458 73.5427 64.3406 71.6127 64.3406 69.2319C64.3406 66.8511 62.4458 64.9211 60.1083 64.9211C57.7709 64.9211 55.876 66.8511 55.876 69.2319C55.876 71.6127 57.7709 73.5427 60.1083 73.5427Z" fill="#F6F6F6"/>
<path d="M86.81 73.5427C89.1474 73.5427 91.0423 71.6127 91.0423 69.2319C91.0423 66.8511 89.1474 64.9211 86.81 64.9211C84.4725 64.9211 82.5776 66.8511 82.5776 69.2319C82.5776 71.6127 84.4725 73.5427 86.81 73.5427Z" fill="#F6F6F6"/>
<path d="M56.7601 78.5177H90.1548C93.7014 78.5177 96.579 81.4486 96.579 85.0609C96.579 95.9115 87.9294 104.721 77.2763 104.721H69.6386C58.9855 104.721 50.3359 95.9115 50.3359 85.0609C50.3359 81.4486 53.2135 78.5177 56.7601 78.5177Z" fill="#F6F6F6"/>
<path d="M100.916 70.0983C100.462 70.0983 100.055 69.8107 99.8969 69.3758L93.382 51.4445C93.1837 50.9035 92.7669 50.4755 92.2357 50.2769L74.6307 43.6413C74.2038 43.4804 73.9214 43.0661 73.9214 42.6038C73.9214 42.1416 74.2038 41.7273 74.6307 41.5664L92.2357 34.9307C92.7669 34.7287 93.1871 34.3041 93.382 33.7632L99.8969 15.8318C100.055 15.397 100.462 15.1094 100.916 15.1094C101.369 15.1094 101.776 15.397 101.934 15.8318L108.449 33.7632C108.647 34.3041 109.064 34.7321 109.595 34.9307L127.204 41.5664C127.631 41.7273 127.913 42.1416 127.913 42.6038C127.913 43.0661 127.631 43.4804 127.204 43.6413L109.595 50.2769C109.064 50.479 108.644 50.9035 108.449 51.4445L101.934 69.3758C101.776 69.8107 101.369 70.0983 100.916 70.0983Z" fill="url(#paint0_linear_2468_3930)"/>
<path d="M100.915 16.2119L107.43 34.1432C107.736 34.9855 108.392 35.6532 109.219 35.9648L126.824 42.6004L109.219 49.2361C108.392 49.5476 107.736 50.2153 107.43 51.0576L100.915 68.9889L94.4005 51.0576C94.0946 50.2153 93.4391 49.5476 92.6121 49.2361L75.0071 42.6004L92.6121 35.9648C93.4391 35.6532 94.0946 34.9855 94.4005 34.1432L100.915 16.2119ZM100.915 14C100.008 14 99.1942 14.5752 98.8782 15.4449L92.3633 33.3762C92.2759 33.6159 92.0911 33.8008 91.8591 33.8898L74.2541 40.5255C73.4002 40.8473 72.8354 41.6759 72.8354 42.6004C72.8354 43.5249 73.4002 44.3535 74.2541 44.6753L91.8591 51.311C92.0944 51.4 92.2759 51.5883 92.3633 51.8246L98.8782 69.7559C99.1942 70.6256 100.008 71.2008 100.915 71.2008C101.823 71.2008 102.637 70.6256 102.953 69.7559L109.467 51.8246C109.555 51.5849 109.74 51.4 109.972 51.311L127.577 44.6753C128.431 44.3535 128.995 43.5249 128.995 42.6004C128.995 41.6759 128.431 40.8473 127.577 40.5255L109.972 33.8898C109.736 33.8008 109.555 33.6125 109.467 33.3762L102.953 15.4449C102.637 14.5752 101.823 14 100.915 14Z" fill="white"/>
<g filter="url(#filter0_d_2468_3930)">
<path d="M60 35.1471C60 42.1313 57.2247 48.476 52.7029 53.166C56.2994 64.2836 51.1222 65.0424 41.5652 60.0612C39.0221 60.862 36.3122 61.2942 33.5 61.2942C18.8645 61.2942 7 49.5878 7 35.1471C7 20.7065 18.8645 9 33.5 9C48.1355 9 60 20.7065 60 35.1471Z" fill="white"/>
</g>
<circle cx="25" cy="36" r="2" fill="#564DA3"/>
<circle cx="33" cy="36" r="2" fill="#564DA3"/>
<circle cx="41" cy="36" r="2" fill="#564DA3"/>
<defs>
<filter id="filter0_d_2468_3930" x="3" y="9" width="61" height="62" filterUnits="userSpaceOnUse" color-interpolation-filters="sRGB">
<feFlood flood-opacity="0" result="BackgroundImageFix"/>
<feColorMatrix in="SourceAlpha" type="matrix" values="0 0 0 0 0 0 0 0 0 0 0 0 0 0 0 0 0 0 127 0" result="hardAlpha"/>
<feOffset dy="4"/>
<feGaussianBlur stdDeviation="2"/>
<feComposite in2="hardAlpha" operator="out"/>
<feColorMatrix type="matrix" values="0 0 0 0 0 0 0 0 0 0 0 0 0 0 0 0 0 0 0.35 0"/>
<feBlend mode="normal" in2="BackgroundImageFix" result="effect1_dropShadow_2468_3930"/>
<feBlend mode="normal" in="SourceGraphic" in2="effect1_dropShadow_2468_3930" result="shape"/>
</filter>
<linearGradient id="paint0_linear_2468_3930" x1="85.2166" y1="56.0566" x2="125.367" y2="22.8893" gradientUnits="userSpaceOnUse">
<stop stop-color="#7267D9"/>
<stop offset="0.39" stop-color="#B9D5F1"/>
<stop offset="0.84" stop-color="#D3D0F3"/>
</linearGradient>
</defs>
</svg>
