<svg width="132" height="265" viewBox="0 0 132 265" fill="none" xmlns="http://www.w3.org/2000/svg">
<path d="M104.535 0C119.342 0 130.967 12.9482 129.696 28.0153L120.281 139.346C119.316 148.461 111.811 155.365 102.872 155.365H26.9197C17.9807 155.365 10.4761 148.461 9.51108 139.346L0.0960925 28.0153C-1.18184 12.9482 10.45 0 25.2505 0H104.535Z" fill="#7267D9"/>
<path d="M39.0008 74.5207C43.5343 74.5207 47.2095 70.8456 47.2095 66.3123C47.2095 61.7789 43.5343 58.1039 39.0008 58.1039C34.4672 58.1039 30.792 61.7789 30.792 66.3123C30.792 70.8456 34.4672 74.5207 39.0008 74.5207Z" fill="#F6F6F6"/>
<path d="M90.7888 74.5207C95.3224 74.5207 98.9976 70.8456 98.9976 66.3123C98.9976 61.7789 95.3224 58.1039 90.7888 58.1039C86.2553 58.1039 82.5801 61.7789 82.5801 66.3123C82.5801 70.8456 86.2553 74.5207 90.7888 74.5207Z" fill="#F6F6F6"/>
<path d="M32.5067 84.0003H97.2772C104.156 84.0003 109.737 89.5812 109.737 96.4595C109.737 117.121 92.9609 133.896 72.2988 133.896H57.4851C36.823 133.896 20.0469 117.121 20.0469 96.4595C20.0469 89.5812 25.6281 84.0003 32.5067 84.0003Z" fill="#F6F6F6"/>
<path d="M65.8045 227.083H70.8119C72.6701 227.083 74.1763 228.589 74.1763 230.447V246.616C74.1763 256.356 82.0721 264.245 91.8066 264.245H101.078C110.428 264.245 117.326 255.528 115.181 246.427L93.0845 152.758H43.5319L21.4354 246.427C19.2903 255.522 26.1885 264.245 35.5383 264.245H44.8099C54.5509 264.245 62.4401 256.35 62.4401 246.616V230.447C62.4401 228.589 63.9463 227.083 65.8045 227.083Z" fill="#7267D9"/>
<path d="M43.5309 152.758C20.7107 168.405 5.0625 176.881 5.0625 185.356C5.0625 193.832 19.4067 219.911 29.5128 209.805C39.6189 199.7 38.9669 191.224 31.7948 184.052C37.6629 176.229 47.443 168.405 47.443 168.405L43.5309 152.758Z" fill="#7267D9"/>
<path d="M93.0849 152.758C115.905 168.405 131.553 176.881 131.553 185.356C131.553 193.832 117.209 219.911 107.103 209.805C96.9969 199.7 97.6489 191.224 104.821 184.052C98.953 176.229 89.1729 168.405 89.1729 168.405L93.0849 152.758Z" fill="#7267D9"/>
<path d="M96.9968 155.431C78.0429 156.943 58.574 156.93 39.6201 155.431V155.3C53.8339 155.372 83.0503 154.987 96.9968 155.431Z" fill="#443E82"/>
<path d="M101.47 188.284C103.967 194.966 105.616 201.956 106.366 209.049C103.863 202.373 102.226 195.377 101.47 188.284Z" fill="#443E82"/>
<path d="M35.1466 188.284C34.3902 195.377 32.7472 202.366 30.25 209.042C30.9998 201.949 32.6559 194.96 35.1466 188.284Z" fill="#443E82"/>
</svg>
