<svg width="72" height="72" viewBox="0 0 72 72" fill="none" xmlns="http://www.w3.org/2000/svg">
<g filter="url(#filter0_d_1959_6921)">
<rect x="4" width="64" height="64" rx="32" fill="url(#paint0_linear_1959_6921)" shape-rendering="crispEdges"/>
<path d="M28.3316 27.9133L30.0998 31.0077C30.3767 31.4922 30.5151 31.7344 30.5151 32C30.5151 32.2655 30.3767 32.5078 30.0998 32.9922L28.3316 36.0866C27.0933 38.2536 26.4742 39.3371 26.957 39.8745C27.4398 40.4118 28.5831 39.9116 30.8697 38.9112L42.4787 33.8323C44.2742 33.0467 45.1719 32.654 45.1719 32C45.1719 31.3459 44.2742 30.9532 42.4787 30.1676L30.8697 25.0887C28.5831 24.0883 27.4398 23.5881 26.957 24.1255C26.4742 24.6628 27.0933 25.7463 28.3316 27.9133Z" fill="white"/>
</g>
<defs>
<filter id="filter0_d_1959_6921" x="0" y="0" width="72" height="72" filterUnits="userSpaceOnUse" color-interpolation-filters="sRGB">
<feFlood flood-opacity="0" result="BackgroundImageFix"/>
<feColorMatrix in="SourceAlpha" type="matrix" values="0 0 0 0 0 0 0 0 0 0 0 0 0 0 0 0 0 0 127 0" result="hardAlpha"/>
<feOffset dy="4"/>
<feGaussianBlur stdDeviation="2"/>
<feComposite in2="hardAlpha" operator="out"/>
<feColorMatrix type="matrix" values="0 0 0 0 0 0 0 0 0 0 0 0 0 0 0 0 0 0 0.25 0"/>
<feBlend mode="normal" in2="BackgroundImageFix" result="effect1_dropShadow_1959_6921"/>
<feBlend mode="normal" in="SourceGraphic" in2="effect1_dropShadow_1959_6921" result="shape"/>
</filter>
<linearGradient id="paint0_linear_1959_6921" x1="-37.3658" y1="-113.171" x2="-86.7761" y2="32.6539" gradientUnits="userSpaceOnUse">
<stop offset="0.0373392" stop-color="#D3D0F3"/>
<stop offset="0.490004" stop-color="#B9D5F1"/>
<stop offset="1" stop-color="#7267D9"/>
</linearGradient>
</defs>
</svg>
